<svg viewBox="0 0 24 24" xmlns="http://www.w3.org/2000/svg">
  <path d="M17.193 9.555c-.131-4.724-4.225-7.583-4.225-7.583s-4.041 2.92-4.14 7.63c-.02 1.01.121 2.04.121 2.04.141 1.77 1.04 3.447 1.04 3.447.857 1.714 2.148 2.872 2.148 2.872.185.163.313.3.413.434.1.134.195.215.303.313.107-.098.204-.179.303-.313.1-.134.228-.271.413-.434 0 0 1.29-1.158 2.148-2.872 0 0 .899-1.677 1.04-3.447 0 0 .141-1.03.121-2.04zM12.984 15.65c-.093.098-.186.196-.28.294v-5.461c.414.072.827.144 1.24.216.03.204.053.416.053.645 0 .6-.211 1.016-.211 1.016-.484 1.442-1.026 3.29-1.026 3.29z" fill="#47A248"/>
</svg>
