<svg viewBox="0 0 24 24" xmlns="http://www.w3.org/2000/svg">
    <path d="M22.1 13.9C21.8 13 21 12 19.8 11.2c-1.3-.8-2.8-1.5-3.8-2.1-1.3-.8-2.5-1.5-3.5-2-.6-.3-1.1-.4-1.5-.4C9.5 6.7 8.5 7.4 8 8.4l-.1.2.1.2c.4.6.8 1.1 1.4 1.5.3.2.7.4 1.1.4.1 0 .2 0 .3-.1l.5-.3.2-.1c.1 0 .1.1.1.2.1.4 0 .9-.3 1.3l-.2.1h-.2c-.3 0-.6.1-.9.2l-.3.1.2.2c.5.5 1.1.8 1.7 1h.1s.1 0 .1-.1c.3-.6.6-1.1.8-1.6.4-.8.9-1.6 1.4-2.3l.1-.2.2.1c.4.2.8.5 1.2.7 1.3.9 2.5 1.6 3.6 2.4.9.6 1.6 1.2 1.8 2 .1.4 0 .7-.3 1.1-.3.5-.8 1-1.4 1.3-1 .6-2.5 1.1-4 1.3-1.5.2-3.1 0-4.3-.2l-.6-.1-.1.2c-.3.6-.8 1.1-1.4 1.5h-.1l-.1-.1c-.4-.4-.8-.9-1-1.6-.1-.3-.1-.6-.1-.9 0-.2.1-.4.2-.6l-.3.2H4.2l-.3.2c-.5.3-1 .8-1.4 1.3-.4.5-.7 1-.9 1.6l-.1.3h.3c.7 0 1.5-.2 2.2-.4 1.4-.4 2.8-.9 4.2-1.2 1.9-.4 3.9-.6 5.8-.4 2.3.2 4.6.8 6.5 1.8l.5.3c.4-1.1.8-2.4 1.1-3.6z" fill="#00758F"/>
</svg>
