<svg viewBox="0 0 24 24" xmlns="http://www.w3.org/2000/svg">
  <path d="M12 0C5.372 0 0 5.372 0 12s5.372 12 12 12 12-5.372 12-12S18.628 0 12 0zm5.845 15.613h-1.54l.09-.434c.421-2.028.608-2.903.623-2.943.015-.04 0-.056-.045-.056h-2.126l-.496 2.413c-.092.42-.352 1.02-.914 1.02h-1.396l.732-3.553c.125-.568.225-.947.225-1.31 0-.613-.393-.896-1.11-.896H9.103l-.151.71h1.54l-.09.434c-.42 2.029-.608 2.9-.623 2.94-.015.04 0 .056.046.056h2.126l-.21.99s-.144.603.284.603h1.396l.542-2.583h.971s-.072.333-.146.685c-.172.846-.421 2.028-.421 2.028s-.132.618.344.618h1.531s.929 0 1.258-1.564c-.033.001-.132.016-.312.016z" fill="#777BB4"/>
</svg>
